<svg width="46.000000" height="45.000000" viewBox="0 0 46 45" fill="none" xmlns="http://www.w3.org/2000/svg" xmlns:xlink="http://www.w3.org/1999/xlink">
	<desc>
			Created with Pixso.
	</desc>
	<defs>
		<filter id="filter_50_817_dd" x="0.000000" y="0.000000" width="46.000000" height="45.000000" filterUnits="userSpaceOnUse" color-interpolation-filters="sRGB">
			<feFlood flood-opacity="0" result="BackgroundImageFix"/>
			<feColorMatrix in="SourceAlpha" type="matrix" values="0 0 0 0 0 0 0 0 0 0 0 0 0 0 0 0 0 0 127 0" result="hardAlpha"/>
			<feOffset dx="0" dy="4"/>
			<feGaussianBlur stdDeviation="1.33333"/>
			<feComposite in2="hardAlpha" operator="out" k2="-1" k3="1"/>
			<feColorMatrix type="matrix" values="0 0 0 0 0 0 0 0 0 0 0 0 0 0 0 0 0 0 0.25 0"/>
			<feBlend mode="normal" in2="BackgroundImageFix" result="effect_dropShadow_1"/>
			<feBlend mode="normal" in="SourceGraphic" in2="effect_dropShadow_1" result="shape"/>
		</filter>
	</defs>
	<g filter="url(#filter_50_817_dd)">
		<path id="Vector" d="M14.0435 31.8L14.6646 32.1C17.2534 33.6 20.1523 34.3 23.0518 34.3C32.1636 34.3 39.6187 27.1 39.6187 18.3C39.6187 14.1 37.8584 10 34.752 7C31.6455 4 27.5039 2.29999 23.0518 2.29999C13.9399 2.29999 6.48486 9.5 6.58838 18.4C6.58838 21.4 7.52051 24.3 9.07324 26.8L9.48779 27.4L7.83105 33.3L14.0435 31.8Z" fill="#00E676" fill-opacity="1.000000" fill-rule="nonzero"/>
		<path id="Vector" d="M36.5122 5.39999C32.9917 1.89999 28.1255 0 23.1553 0C12.5942 0 4.10352 8.29999 4.20703 18.4C4.20703 21.6 5.13916 24.7 6.69189 27.5L4 37L14.0435 34.5C16.8394 36 19.9453 36.7 23.0518 36.7C33.5098 36.7 42 28.4 42 18.3C42 13.4 40.0327 8.79999 36.5122 5.39999ZM23.1553 33.6C20.3599 33.6 17.564 32.9 15.1826 31.5L14.5615 31.2L8.55566 32.7L10.1089 27L9.69482 26.4C5.13916 19.3 7.31348 9.89999 14.7686 5.5C22.2236 1.10001 31.853 3.20001 36.4087 10.4C40.9644 17.6 38.79 26.9 31.335 31.3C28.9536 32.8 26.0547 33.6 23.1553 33.6ZM32.2671 22.5L31.1279 22C31.1279 22 29.4712 21.3 28.436 20.8C28.3325 20.8 28.229 20.7 28.1255 20.7C27.8149 20.7 27.6074 20.8 27.4004 20.9C27.4004 20.9 27.2969 21 25.8477 22.6C25.7437 22.8 25.5366 22.9 25.3296 22.9L25.2261 22.9C25.1226 22.9 24.9155 22.8 24.812 22.7L24.2944 22.5C23.1553 22 22.1201 21.4 21.2915 20.6C21.0845 20.4 20.7739 20.2 20.5669 20C19.8418 19.3 19.1172 18.5 18.5996 17.6L18.4961 17.4C18.3926 17.3 18.3926 17.2 18.2891 17C18.2891 16.8 18.2891 16.6 18.3926 16.5C18.3926 16.5 18.8066 16 19.1172 15.7C19.3242 15.5 19.4277 15.2 19.6348 15C19.8418 14.7 19.9453 14.3 19.8418 14C19.7383 13.5 18.4961 10.8 18.1851 10.2C17.978 9.89999 17.771 9.79999 17.4604 9.70001L17.1499 9.70001C16.9429 9.70001 16.6323 9.70001 16.3213 9.70001C16.1143 9.70001 15.9072 9.79999 15.7002 9.79999L15.5967 9.89999C15.3896 10 15.1826 10.2 14.9756 10.3C14.7686 10.5 14.665 10.7 14.458 10.9C13.7329 11.8 13.3188 12.9 13.3188 14C13.3188 14.8 13.5259 15.6 13.8364 16.3L13.9399 16.6C14.8721 18.5 16.1143 20.2 17.771 21.7L18.1851 22.1C18.4961 22.4 18.8066 22.6 19.0137 22.9C21.188 24.7 23.6729 26 26.4688 26.7C26.7793 26.8 27.1934 26.8 27.5039 26.9C27.8149 26.9 28.229 26.9 28.5396 26.9C29.0571 26.9 29.6787 26.7 30.0928 26.5C30.4033 26.3 30.6104 26.3 30.8174 26.1L31.0244 25.9C31.2314 25.7 31.4385 25.6 31.646 25.4C31.853 25.2 32.0601 25 32.1636 24.8C32.3706 24.4 32.4741 23.9 32.5776 23.4C32.5776 23.2 32.5776 22.9 32.5776 22.7C32.5776 22.7 32.4741 22.6 32.2671 22.5Z" fill="#FFFFFF" fill-opacity="1.000000" fill-rule="nonzero"/>
	</g>
</svg>
